<svg id="LETTERS" xmlns="http://www.w3.org/2000/svg" viewBox="0 0 900 900"><title>Artboard 1</title><path id="J_0" d="M102.56,204.35C107.16,215.6,116.37,224,132,224a34,34,0,0,0,25.58-11c5.37-5.88,9.21-13.81,11.51-27.37L191.56,57h15.09l-22.76,128.9c-3.07,17.14-7.42,29.41-16.37,38.36-8.7,9-21.74,14.32-35.55,14.32-21.74,0-36.83-11.25-43.22-28.64Z"/><path id="S_0" d="M399.61,200.5c11.25,14.32,28.9,24,47.83,24,20.2,0,39.64-14.58,39.64-36.83,0-21.23-16.37-30.18-34.78-39.39-19.44-9.72-38.62-20.72-38.62-45.78C413.67,73.65,439,55,467.38,55c22.76,0,39.9,10.74,47.06,17.39L505,83.88a55.51,55.51,0,0,0-37.6-14.32c-20.2,0-38.36,12.79-38.36,33,0,37.34,73.4,30.18,73.4,85.17,0,29.67-24.55,51.41-55.5,51.41-22.51,0-43.22-10.23-59.08-28.9Z"/><path id="T_0" d="M832.33,58l-2.56,14.58H779.39l-28.9,164.45H735.4L764.3,72.61H713.92L716.47,58Z"/><path id="O_0" d="M212.53,513.81c-16.37,16.11-38.11,24.81-61.89,24.81a96.12,96.12,0,0,1-67.77-28.13C64.71,492.07,54,466.75,54,441.43c0-23.79,8.44-46,24.55-62.15,16.37-16.11,38.11-24.81,61.89-24.81a96.12,96.12,0,0,1,67.77,28.13c18.16,18.41,28.9,43.73,28.9,69.05C237.08,475.45,228.64,497.7,212.53,513.81ZM93.86,500a81,81,0,0,0,56.78,24c19.69,0,37.08-6.91,50.89-20.72,13.56-13.55,20.2-31.46,20.2-51.66,0-21-9.21-43-24.55-58.57a81,81,0,0,0-56.78-24c-19.69,0-37.08,6.91-50.9,20.72-13.55,13.55-20.2,31.46-20.2,51.66C69.31,462.4,78.52,484.4,93.86,500Z"/><path id="D_0" d="M498.71,385.67c17.39,17.65,28.13,41.43,28.13,66.5,0,23-6.91,44.76-22.25,60.36-15.6,15.6-37.08,24-66,24H391.55l-31.46-179h62.4C455.23,357.53,481.06,367.51,498.71,385.67Zm-121-13.55L404.08,522h33.5c24.3,0,42.71-6.65,55.75-19.69,12.79-13,18.16-30.69,18.16-50.13,0-21-9.46-41.69-23.78-56.27-14.83-15.09-36.06-23.78-63.68-23.78Z"/><path id="D_1" d="M799.21,386.17c17.39,17.65,28.13,41.43,28.13,66.5,0,23-6.91,44.76-22.25,60.36-15.6,15.6-37.08,24-66,24H692L660.59,358H723C755.73,358,781.56,368,799.21,386.17Zm-121-13.55,26.34,149.87h33.5c24.3,0,42.71-6.65,55.75-19.69,12.79-13,18.16-30.69,18.16-50.13,0-21-9.46-41.69-23.78-56.27-14.83-15.09-36.06-23.78-63.68-23.78Z"/><path id="A_0" d="M179.28,657l44.5,179H209.2l-13.3-54H110.48l-32,54H62.15l106.9-179Zm-60.1,110.49h73.15l-21.74-86.19Z"/><path id="R_0" d="M383.11,836.56l31.46-179h59.08c13,0,22,2.56,28.64,7.42,10,7.67,15.6,19.18,15.6,33.25,0,18.42-11,34-26.34,41.69-6.14,3.32-13.3,5.11-27.11,5.11l52.94,91.56H500.5L447.3,745h-33L398.2,836.56Zm44-164.45-10.23,58.31H466c10,0,15.34-2,19.44-4.09a31.83,31.83,0,0,0,17.14-28.13c0-9.46-3.33-16.62-10-21.74-4.6-3.07-10.74-4.35-19.44-4.35Z"/><path id="T_0-2" data-name="T_0" d="M832.33,658l-2.56,14.58H779.39l-28.9,164.45H735.4l28.9-164.45H713.92L716.47,658Z"/></svg>